<?xml version="1.0" encoding="UTF-8"?>
<svg xmlns="http://www.w3.org/2000/svg" version="1.1" viewBox="0 0 144 144">
  <!-- Generator: Adobe Illustrator 29.3.1, SVG Export Plug-In . SVG Version: 2.1.0 Build 151)  -->
  <defs>
    <style>
      .st0 {
        isolation: isolate;
      }

      .st1 {
        mix-blend-mode: multiply;
      }

      .st2 {
        fill: #8f46ce;
      }
    </style>
  </defs>
  <g class="st0">
    <g id="Layer_1">
      <g class="st1">
        <path class="st2" d="M48.16.2c-13.23,13.23-34.68,13.23-47.91,0C13.48,13.44,13.48,34.89.25,48.12c13.23-13.23,34.68-13.23,47.91,0-13.23-13.23-13.23-34.68,0-47.91Z"/>
        <path class="st2" d="M96.08.2c-13.23,13.23-34.68,13.23-47.91,0,13.23,13.23,13.23,34.68,0,47.91,13.23-13.23,34.68-13.23,47.91,0-13.23-13.23-13.23-34.68,0-47.91Z"/>
        <path class="st2" d="M143.99.2c-13.23,13.23-34.68,13.23-47.91,0,13.23,13.23,13.23,34.68,0,47.91,13.23-13.23,34.68-13.23,47.91,0-13.23-13.23-13.23-34.68,0-47.91Z"/>
        <path class="st2" d="M48.16,48.12c-13.23,13.23-34.68,13.23-47.91,0,13.23,13.23,13.23,34.68,0,47.91,13.23-13.23,34.68-13.23,47.91,0-13.23-13.23-13.23-34.68,0-47.91Z"/>
        <path class="st2" d="M96.08,48.12c-13.23,13.23-34.68,13.23-47.91,0,13.23,13.23,13.23,34.68,0,47.91,13.23-13.23,34.68-13.23,47.91,0-13.23-13.23-13.23-34.68,0-47.91Z"/>
        <path class="st2" d="M143.99,48.12c-13.23,13.23-34.68,13.23-47.91,0,13.23,13.23,13.23,34.68,0,47.91,13.23-13.23,34.68-13.23,47.91,0-13.23-13.23-13.23-34.68,0-47.91Z"/>
        <path class="st2" d="M48.16,96.03c-13.23,13.23-34.68,13.23-47.91,0,13.23,13.23,13.23,34.68,0,47.91,13.23-13.23,34.68-13.23,47.91,0-13.23-13.23-13.23-34.68,0-47.91Z"/>
        <path class="st2" d="M96.08,96.03c-13.23,13.23-34.68,13.23-47.91,0,13.23,13.23,13.23,34.68,0,47.91,13.23-13.23,34.68-13.23,47.91,0-13.23-13.23-13.23-34.68,0-47.91Z"/>
        <path class="st2" d="M143.99,96.03c-13.23,13.23-34.68,13.23-47.91,0,13.23,13.23,13.23,34.68,0,47.91,13.23-13.23,34.68-13.23,47.91,0-13.23-13.23-13.23-34.68,0-47.91Z"/>
      </g>
    </g>
  </g>
</svg>