<?xml version="1.0" encoding="UTF-8"?>
<svg id="Layer_1" xmlns="http://www.w3.org/2000/svg" version="1.1" viewBox="0 0 144 144">
  <!-- Generator: Adobe Illustrator 29.3.1, SVG Export Plug-In . SVG Version: 2.1.0 Build 151)  -->
  <defs>
    <style>
      .st0 {
        fill: #140899;
      }

      .st1 {
        fill: #990a32;
      }
    </style>
  </defs>
  <path class="st0" d="M143.93,0v144H.07V0h143.85ZM141.72,2.35H2.42l.07,139.3h138.86s.09.12.15.12l.22-.19V2.35Z"/>
  <path class="st1" d="M139.81,4.11v135.77H4.19V4.11h135.62ZM137.61,137.53V6.98c0-.11-.13-.34-.07-.52l-.15-.13-131,.21v131h131.22Z"/>
  <path class="st0" d="M55.91,8.82l-.29,2.06c4.33-1.55,9.46-2.05,13.21,1.12,1.48,1.25,2.46,2.99,3.17,4.76.83-2.05,2-3.99,3.85-5.27,3.75-2.61,8.44-2.08,12.54-.61l-.07-2.05c2.46.82,4.5,1.89,5.29,4.55.66-1.66,1.7-3.71,3.69-3.95,3.18-.38,5.04,2.52,3.07,5.13-.18-.09-.49-1.07-.69-1.37-.78-1.15-2.23-1.11-2.33.41-.19,2.79,4.08,4.94,6.36,5.56s5.5.39,6.24,3.31c.25.99.08,1.87.34,2.82-.12.09-1.46-.68-1.79-.78-3.59-1.05-3.55,2.73-1.3,4.53s5.16.73,7.35-.59l.11-.14c-1.08-2.3.53-3.3,2.68-2.58.56-3.01-2.45-4.88-3.52-1.24-.05.17-.04.44-.29.21-.07-.06-.89-1.44-.96-1.61-1.17-2.8.9-5.52.67-8.31-.09-1.12-.6-1.98-1.76-2.21-2.55-.49-4.15,1.21-2.86,3.59.24.45.68.72.79,1.19-2.36.35-3.83-1.85-3.65-4.02.3-3.67,4.69-4.87,7.66-3.59,1.95.84,2.8,2.59,3.93,4.23.21-1.53.92-3.11,2.26-3.96,1.99,1.41,2.8,3.14,2.96,5.57.45-3.28,1.66-5.62,5.06-6.46l1.11,2.35c1.68-1.35,3.48-2.03,5.66-1.91.02,1.02-.02,2.14-.34,3.12s-1.18,1.69-1.44,2.67l2.2.98c-.64,3.22-3.15,4.81-6.31,4.98-.04.22.28.18.44.22.69.15,1.42.18,2.09.41,1.31.44,2.06,1.65,3.05,2.53-1.1,1.34-2.57,1.76-4.11,2.35,2.52,1.08,4.64,3.01,4.76,5.93.08,1.92-.7,4.24-2.57,5.07-2.51,1.12-5.92-.21-5.57-3.29.56.18.91.7,1.46.96,2.4,1.11,3.7-.58,3.37-2.93-.47-3.41-5.76-1.01-7.7-.82-1.68.17-3.15-.14-4.33-1.39,0-.17,1.97-.46,2.06-1.77.11-1.63-1.86-2.37-3.18-1.84-.08.11.7,1.82-.31,2.63s-2.01-.23-2.47.17c-.72.63-1.57,3.66-1.55,4.62.04,2.11,2.21,4.62,4.45,4.16,2.12-.44.98-3.27.4-4.52,1.63-.02,3.58.03,4.62,1.48.94,1.31.94,3.17,1.33,4.69.56,2.16,2.12,5.51,4.28,6.45,3.21,1.39,3.34-2.34.35-2.7,2.63-2.24,5.67-.09,5.11,3.2-.32,1.85-2.29,2.94-3.93,3.41,1.12.55,2.3,1.04,3.08,2.06.5.64,1.27,2.44,1.46,3.25.06.26.01.2-.21.21-.46.02-1.34-.2-1.83-.3,2.67,6.38,1.35,13.91-5.73,16.39l2.19,1.19c5.4,3.33,5.77,9.74,3.54,15.19.6.15,1.31-.18,1.83-.15.22.01.27-.05.21.21-.29,1.27-1.3,3.33-2.35,4.12-.66.5-1.57.73-2.19,1.26,1.64.29,3.66,1.59,3.93,3.35.52,3.34-2.41,5.38-5.1,3.19,3.98-.98,1.95-4.69-1.32-2.06-3.47,2.79-2.78,6.19-4.19,9.62-.92,2.24-2.89,2.35-5.07,2.35,1.05-1.92,1.58-5.26-1.74-4.45-3.53.86-3.46,5-2.16,7.69.14.29.59,1.17.87,1.18,2.27-1.01,3.17.6,2.5,2.65,1.31.5,3.29-.2,3.18-1.84-.09-1.31-2.07-1.61-2.06-1.77,1.12-1.26,2.69-1.56,4.33-1.39,1.91.19,7.09,2.52,7.68-.7.5-2.76-1.35-4.4-3.84-2.81-.17.11-.84.88-.98.71-.18-4.63,6.19-4.95,7.71-.88s-.76,7.13-4.33,8.59c1.57.56,3,1.01,4.11,2.35-1.04.95-1.76,2.12-3.16,2.56-.32.1-2.42.4-2.42.52,3.16.36,5.65,1.75,6.31,5.06l-2.2.98c.34.96,1.12,1.68,1.44,2.68s.36,2.1.34,3.12c-2.19.09-3.97-.56-5.66-1.91l-1.1,2.35c-3.39-.87-4.62-3.18-5.07-6.47-.18,2.46-.98,4.11-2.96,5.57-1.31-.87-2.06-2.41-2.26-3.96-1.16,1.63-1.97,3.38-3.93,4.23-2.92,1.26-7.24.12-7.64-3.46-.25-2.25,1.18-4.5,3.63-4.15.12.11-.74,1.05-.85,1.28-1.17,2.37.45,3.98,2.92,3.51,3.38-.65.89-6.03.73-8.09-.11-1.49.37-3.14,1.61-4.04.46,3.66,4.22,2.29,3.53-1.03-2.34.6-3.65-.24-2.71-2.65-2.08-1.39-5.16-2.45-7.35-.73-1.11.87-2.25,2.76-1.32,4.1,1.2,1.72,4.14-.43,4.33-.29-.26.95-.09,1.83-.34,2.82-.76,2.98-4.26,2.72-6.68,3.46-2.25.69-6.52,2.94-5.88,5.81.2.91,1.19.98,1.87.46.63-.48.69-1.22,1.11-1.83,2.57,3.26-1.43,6.72-4.62,4.47-1.14-.8-1.59-2.1-2.14-3.3-.81,2.69-2.81,3.71-5.29,4.55l.07-2.06c-.62.03-1.14.38-1.73.55-6.33,1.84-12.27.03-14.65-6.43-.65,1.64-1.56,3.27-2.86,4.48-3.73,3.45-9.05,2.99-13.52,1.39.06.62.15,1.25.27,1.86.04.2.03.26-.19.19-2.59-.83-4.35-1.87-5.29-4.55-.62,1.65-1.73,3.73-3.69,3.95-3.16.36-4.93-2.48-3.14-5.13.56.66.88,2.16,1.98,2.19,1.82.04,1.1-2.48.37-3.43-2.78-3.63-6.31-2.87-9.8-4.31-2.16-.89-2.33-3.1-2.25-5.17,2.19,1.52,5.72,1.26,4.18-2.2s-6.17-2.79-8.72-.81c1.22,2.35-.55,3.24-2.67,2.58-.16,1.19.1,3.02,1.58,3.21,1.24.16,1.8-1.26,2.17-2.18,1.05,1.31,1.53,2.47,1.39,4.18-.17,2.11-2.68,7.37.85,7.98,2.38.41,3.95-1.15,2.86-3.44-.25-.52-.76-.84-.91-1.37,4.12-.42,4.87,5.31,1.72,7.23s-6.61.73-8.51-2.13c-.34-.5-.52-1.08-.81-1.53-.09-.14.02-.26-.33-.19-.23,1.55-.87,3.12-2.26,3.96l-2.21-2.36-.82-3.22c-.21,3.2-1.62,5.6-4.86,6.39l-1.24-2.28c-1.44,1.17-3.12,1.9-5,1.92-.82,0-.7-.42-.67-1.12.1-1.91.86-3.18,1.92-4.69l-2.34-.97c.7-3.29,3.12-4.72,6.31-5.06-1.11-.4-2.3-.29-3.34-.93-.29-.18-2.04-1.85-2.09-2.04-.11-.42,1.08-1.26,1.43-1.46.8-.46,1.7-.59,2.52-1.01-3.49-1.47-5.74-4.62-4.37-8.49,1.46-4.14,7.97-3.95,7.75.77-.46-.07-.67-.51-1.07-.76-2.38-1.47-4.19.13-3.77,2.74.54,3.38,5.84.98,7.85.82,1.85-.15,2.87.26,4.33,1.32l-1.69.88c-1.64,1.81.91,3.5,2.65,2.79-.33-1.16-.42-2.84,1.17-2.95.61-.04,1.24.48,1.61.16.72-.63,1.57-3.66,1.56-4.63-.03-2.11-2.22-4.62-4.46-4.15-2.11.44-1.04,3.33-.25,4.52-2.26,0-4.34-.09-5.25-2.46-1.27-3.28-1.06-8.2-5.03-10.11-3.12-1.5-3.56,2.31-.45,2.58-1.78,1.95-4.9.78-5.14-1.84s1.65-4.14,3.96-4.63c-.7-.53-1.54-.78-2.25-1.35-1.03-.81-2-2.76-2.29-4.03-.06-.27,0-.19.21-.21.56-.05,1.23.29,1.83.15-2.11-5.17-1.87-11.51,3.1-14.9l2.63-1.48c-3.08-1.09-5.7-3.6-6.57-6.8s-.24-6.43.84-9.58c-.53.12-1.3.29-1.83.3-.2,0-.29.02-.22-.22.25-.84,1.06-2.72,1.62-3.38.77-.92,1.89-1.4,2.94-1.91-1.4-.47-2.93-1.15-3.61-2.57-1.59-3.32,1.85-6.62,4.78-4.05-3.88.93-1.96,4.69,1.32,2.06s2.82-6.09,4.15-9.52c.91-2.34,3.01-2.5,5.25-2.46-.78,1.18-1.85,4.08.25,4.52,2.32.48,4.46-2.14,4.46-4.3,0-.96-.84-3.86-1.56-4.48-.45-.39-1.65.64-2.56-.23-.84-.81-.1-2.41-.22-2.57-1.84-.72-4.33,1.07-2.59,2.87l1.62.8c-1.56,1.1-2.66,1.53-4.61,1.31s-6.89-2.52-7.55.71c-.53,2.62,1.32,4.36,3.74,2.86.4-.25.61-.69,1.07-.76.22,4.61-6.05,4.92-7.67.98s.75-7.27,4.29-8.69c-1.54-.59-2.99-1.04-4.11-2.35.98-.88,1.74-2.09,3.05-2.53.67-.22,1.41-.25,2.09-.41.16-.04.48,0,.44-.22-3.14-.21-5.58-1.7-6.26-4.85l2.29-1.25c-1.3-1.56-2.07-3.34-1.89-5.42l.22-.22c2.13-.16,3.77.63,5.42,1.88l1.11-2.34c3.33.8,4.68,3.2,5.06,6.46.28-1.16.27-2.44.93-3.48.2-.31,1.79-1.99,2.04-2.08.2-.08.22-.05.35.07.27.24,1.01,1.23,1.19,1.57.37.69.58,1.53.71,2.3.38.08.23-.08.31-.21,1.99-3.29,4.38-5.85,8.7-4.02,3.77,1.61,3.46,7.9-1.07,7.61.3-.7.89-1.1,1.13-1.88,1.09-3.56-4.69-4.26-4.96-.7-.25,3.31,2.68,6.89-.36,9.92-.38-.97-1.01-2.47-2.32-2.17s-1.58,2.07-1.43,3.2c2.15-.66,3.81.21,2.68,2.58l.11.14c2.62,1.77,6.87,2.57,8.55-.85s-1.91-3.94-4.14-2.3c-.07-2.27.06-4.37,2.46-5.26,3.27-1.21,8.01-1.04,9.99-4.85.59-1.13.57-3.24-1.11-2.73-1.01.31-1.03,1.45-1.64,2.11-2.73-4.28,3.06-7.23,5.79-3.37l1.11,2.19c.77-2.76,2.87-3.83,5.44-4.55ZM36.52,15.87c2.14-2.37.24-5.44-2.72-5.73-4.23-.42-5.9,3.25-7.13,6.61l-1.64-4.89-.63-.68c-2.41,1.77-1.84,4.97-2.57,7.56l3.96,6.1c-.18-1.74,1.32-3.51,3.13-3.2.66.11.97.56,1.43.92.14.11.21.34.37.08.9-1.47-.94-5.84-.82-7.87.32-5.04,8.34-3.76,6.62,1.11ZM54.88,10.14c-3.05.55-3.43,3.63-4.78,5.88-.52-2.26-1.21-5.99-4.27-5.74-1.15.1-2.22,1-2.12,2.21,2.43-2.47,4.89.18,3.4,3.04-1.14,2.18-4.05,3.74-6.35,4.38-2.5.7-6.06.36-6.02,3.89,3.99-1.44,5.88,1.84,3.5,5.04-2.09,2.82-5.95,2.25-8.64.69.63,1.53,1.46,3.19,1.3,4.9-.53,5.61-9,7.14-7.03.24-3.63.05-3.24,3.75-4.01,6.35-.67,2.27-2.49,5.5-4.85,6.32-2.86.99-4.73-1.61-2.46-3.7-1.25,0-2.27,1.23-2.27,2.42,0,2.81,3.67,3.51,5.8,4.04l-4.1,1.99c-.79.66-1.47,1.49-1.77,2.49-.07.24.02.22.22.22.56-.01,1.26-.22,1.83-.3-.35,1.34-.96,2.58-1.28,3.94-.77,3.28-.7,6.7,1.5,9.43l-.92-3.05c-1.65-9.5,8.37-10.83,14.66-14-.06-.43-.45-.62-.67-1.02-.56-1.04-.61-2.66.47-3.36,1.31-.85,2.91.11,3.28-.09,1.52-1.94,2.62-4.13,2.79-6.62.11-1.7-.25-3.44-.3-5.13-.03-.92.13-1.87,0-2.72,3.41-.41,6.76.66,10.14-.22,1.68-.44,3.12-1.4,4.49-2.42-.38-1.2-.67-2.86.51-3.74,1.27-.94,2.69-.13,3.81.58,2.94-4.52,3.33-11.96,9.07-14.15,2.79-1.06,5.63-.55,8.27.7-3.88-3.4-9.16-2.14-13.52-.44l.29-2.06ZM93.97,16.02c-1.03-1.27-1.26-3.21-2.35-4.48-.43-.5-1.65-1.26-2.28-1.4-.39-.09-.11.13-.11.25.04.61.1,1.2.18,1.8-1.26-.33-2.43-.92-3.7-1.22-3.45-.83-7.03-.77-9.82,1.66,4.01-1.94,8.56-1.84,11.6,1.7,2.87,3.33,3.38,8.01,5.67,11.67l.14.15c2.78-2.47,5.65-.3,4.25,3.09,1.83,1.4,3.89,2.45,6.2,2.77,2.16.3,4.28-.05,6.44-.14.37-.01,1.76-.08,1.93.15-.29,5.01-1.03,10.36,2.65,14.38,2.32-.95,5,.25,3.86,3.02-.24.58-.66.87-.86,1.41,4.34,2.48,10.88,3.14,13.64,7.75,1.33,2.23,1.46,4.61.84,7.1l-.88,2.5c2.3-2.87,2.51-6.4,1.65-9.87-.32-1.3-.96-2.5-1.28-3.79.53.05,1.33.32,1.83.3.22-.01.26.05.21-.21-.32-1.47-1.49-2.46-2.77-3.11l-3.09-1.39c1.88-.53,4.75-.94,5.61-2.99.65-1.55-.31-3.5-2.09-3.48,2.3,2.03.42,4.64-2.35,3.74-2.42-.79-4.32-4.15-4.99-6.47-.74-2.57-.34-6.2-3.98-6.24,2.08,5.4-4.3,5.95-6.38,1.89-1.25-2.43-.4-4.72.64-7.04-2.02,1.09-4.32,1.81-6.56.91-4.26-1.7-4.39-8.62,1.42-6.64.08-3.52-3.45-3.18-5.91-3.86-2.83-.78-7.56-3.37-6.84-6.9.23-1.15,1.8-2,2.86-1.31l.93.76c.1-1.8-1.94-2.63-3.44-2.04-1.94.76-2.56,3.74-2.88,5.57ZM117.33,16.75c-1.2-3.32-2.83-6.95-6.99-6.62-3.11.25-4.87,3.11-2.93,5.74-.07-1.06-.29-2.08.37-3.01,1.18-1.69,4.42-1.69,5.66-.08,2.07,2.69-1.3,7.07-.07,9.99,1.99-2.31,4.99-.82,4.85,2.06l3.89-5.89.07-.34c-.69-2.56-.18-5.72-2.56-7.44l-1.03,1.47-1.25,4.11ZM20.94,17.78c-.45-2.42-.72-6.7-3.67-7.43-.81-.2-1.06,1.58-1.31,2.23-.06.15.08.26-.22.2-1.65-1.04-3.13-2.38-5.23-2.34,0,.79.17,1.66.48,2.38.35.82,1.71,2.29,1.86,2.84.08.29-.07.17-.2.22-.37.15-2.19.66-2.29.96.82,3.49,4.47,3.43,7.34,4.02.17-.15-.73-.93-.86-1.12-1.09-1.72-.27-3.8,1.93-3.39.83.15,1.54.93,2.16,1.43ZM133.49,10.43c-2.1-.05-3.56,1.32-5.22,2.35-1.11-1.79-.49-3.53-2.91-1.59-1.88,1.51-1.74,4.42-2.3,6.59.96-.95,2.77-2.22,4.04-1.03s.09,3.09-.81,4.12c1.91-.45,5.02-.5,6.38-2.06.27-.31,1.06-1.59.95-1.95-.12-.39-2.04-.85-2.48-1.05.99-1.7,2.47-3.24,2.35-5.36ZM59.58,14.55c.39,3.15,2.81,1.66,4.77,1.76.78.04,1.73.38,2.28.95-5.72,3.75,1.83,8.77,3.79,3.2,2.32-6.58-7.25-10.65-12.17-6.58-4.1,3.39-4.2,9.68-7.42,13.74-.65-1-2.79-2.57-3.66-1.01-.74,1.33.55,2.45.29,2.93-.18.33-2.73,1.99-3.22,2.23-3.35,1.68-6.87,1.15-10.46.85-.31.31.14.3.29.44,1.54,1.48,4.72,4.37,5.67.75,2.97.44,4.18,2.16,5.39,4.66.1.2-.09.41.33.32-.31-1.21,0-2.92.37-4.11,1.36-4.34,6.09-5.96,9.62-2.87.15.13,1.2,1.1,1.03,1.25-6.82.02-6.02,4.46-2.5,8.45s9.39,5.18,10.52,11.08c.24,1.26.28,2.55.36,3.83-.88-.12-1.69-.63-2.61-.5-1.36.2-2.05,1.37-1.33,2.61,1.14,1.95,4.38,1.47,6.05.51,2.07-1.2,2.78-3.87,3.35-6.04-2.34-1.24-2.12-2.72.19-3.76l.09-.3c-1.3-.47-1.75-1.71-2.06-2.94-1.86,2.48-3.82.66-5.73-.59-.13-.19,1.04-.52,1.23-.61,3.12-1.54,2.71-3.5,1.71-6.44-.53.53-.79,1.3-1.26,1.9-2.86,3.61-6.99,1.6-8.14-2.19,2.86.3,3.56-2.2,3.38-4.56,1.73.91,3.43.29,2.87-1.91-.23-.91-.89-1.41-1.85-1.11-.51.17-.79.9-1.31,1.04-.42-.3-1.43-3.24-1.46-3.85-.07-1.4.86-3.2,1.26-4.53-.89-1.14-2.22-2.52-2.14-4.09s1.44-3.38,2.48-4.5ZM96.71,26.35c-.45-.48-1.14-.49-1.72-.26-.79.31-1.2,1.08-1.91,1.47-3.28-4.28-3.58-12.45-9.06-14.75-4.79-2.01-11.99,1.38-10.59,7.22.5,2.08,2.58,3.67,4.67,2.54,2.46-1.33,1.18-4.15-.74-5.3,2.16-2.44,6.57,1.35,7.12-2.72.87,1.09,2.33,2.91,2.43,4.34.12,1.59-1.17,3.15-2.17,4.26.69,1.91,1.61,3.58,1.06,5.66-.1.37-1.12,2.78-1.33,2.79-2.87-3.79-4.63,2.65-1.49,2.35.42-.04.87-.31,1.26-.43-.15,2.38.52,4.83,3.38,4.56-1.16,3.81-5.26,5.82-8.14,2.19-.47-.6-.73-1.36-1.26-1.9-1.32,3.17-.92,6.06,2.85,6.76l.09.29c-1.88,1.32-3.87,3.03-5.73.59-.21,1.43-.93,2.34-2.06,3.16,2.22.94,2.77,2.75.28,3.84.73,3.49,2.47,6.96,6.55,6.93,1.69-.01,4.12-1.54,2.78-3.34-1.11-1.5-3.71.03-3.88-.16.13-3.54.61-6.6,3.38-9.04,3.14-2.76,6.68-3.98,9.03-7.87,2.59-4.3.63-6.42-4.03-6.45-.18-.15.95-1.19,1.11-1.32,2.74-2.29,6.52-2.03,8.56.98,1.22,1.8,1.57,3.93,1.5,6.07l1.62-2.86c1.01-1.12,2.47-1.92,3.96-2.13,1,3.77,4.42.44,6.03-.96.06-.34-.15-.2-.37-.21-2.01-.07-4.16.48-6.32.28-2.63-.24-5.07-1.75-7.07-3.38-.15-.28.49-1.28.53-1.84.03-.42-.05-1.04-.34-1.35ZM59.43,16.46c-.33-.24-1.23,1.64-1.33,1.97-.55,1.93,1.1,3.02,2.04,4.45-.57,2.51-2.25,4.81-.34,7.24,4.11-2.78,5.52,5.44.81,4.56-.12,1.25-.31,2.47-1.27,3.36l-1.66.98c3.31,4.82,6.7,1.1,8.01-2.86,1.25,2.45,2.84,6.23.37,8.45-.36.33-1.6.74-1.17,1.17.62.62,2.22.92,2.7-.08l1.26-2.05c.54,2.26.78,4.28,3.19,5.27,2.33-1.05,2.66-3,3.14-5.27.84.77,1.21,3.1,2.75,2.69.22-.06,1.67-.71,1.51-.93-4.17-1.45-2.69-6.35-1.1-9.26.88,2.26,2.83,6.28,5.9,4.87.58-.27,1.88-1.44,2.1-2.01.1-.26-.09-.19-.2-.23-.33-.13-.62-.14-.97-.36-1.25-.81-1.63-2.35-1.77-3.74-4.71.92-3.25-7.35.81-4.56,1.88-2.31.33-4.72-.36-7.13.59-1.17,1.94-2.03,2.16-3.41.18-1.09-.53-2.33-1.22-3.12h-.21c-1.23,1.99-3.79.29-5.59.88-.14.2.57.76.71.98,2.68,4.27-3.32,7.63-6.21,3.86-.84-1.1-1.15-2.5-1.48-3.81-.32,1.28-.58,2.66-1.4,3.75-2.94,3.88-8.97.43-6.29-3.8.14-.22.85-.78.71-.98-1.78-.59-4.41,1.08-5.59-.88ZM24.91,25.71l-5.97-3.93c-1.72.41-3.69.42-5.38.89-1.13.31-1.47.94-2.31,1.58-.21.34,1.14,1.04,1.42,1.13l4.15,1.21c-3.4,1.34-6.99,2.8-6.62,7.13.26,3.03,3.33,4.88,5.74,2.71-4.66,2.04-6.02-5.98-1.69-6.47,3.07-.34,5.53,1.4,8.45.66l-1-1.65c-.4-1.93,1.39-3.37,3.2-3.27ZM127.18,26.45c.81-.07,5.73-1.24,5.57-2.11-1.73-2.44-5-1.8-7.57-2.58l-6.09,3.95c2.7-.27,4.62,3.12,2.06,4.71-.15.21.78.42.95.44,2.72.3,5.53-1.61,8.28-.78,2.9.87,2.68,6.62-.93,6.67-.44,0-.85-.23-1.25-.09,2.24,1.6,4.93.31,5.52-2.27.53-2.32-.3-4.25-2.15-5.65l-4.4-2.29ZM54.59,32.32c-4.25-3.45-8.25.65-8.38,5.21l.59,6.69-2.91-6.42c-.79-1.41-1.9-2.49-3.47-3-1.01,2.13-3.06,1.83-4.78.74.58,1.31,1.38,2.72.29,4.04-.28.35-.7.49-1.04.75.49,1.8,1.66,2.82,3.24,3.66l6.03,2.71c-3.52-.14-7.4-1.38-10.63.62-2.55,1.58-3.38,4.98-1.13,7.17,1.3-7.28,7.92-3.34,11.1.15,3.69,4.05,4.84,9.4,11.6,9.26.32,0,.2.04.16-.16-.49-2.34.24-4.2,2.94-3.97.81.07,1.47.51,2.27.59-1.44-2.95-.64-6.01,3.2-5.17l.31-.18c-.21-1.03-.23-2.11-.52-3.14-1.26-4.35-6.21-5.93-9.24-8.84-3.38-3.25-6.57-9.58.38-10.74ZM97.2,44.23c.24-3.64,1.56-8.2-.95-11.32-1.76-2.19-4.74-2.53-6.84-.59,7.12,1.18,3.6,7.75.15,10.95-3.76,3.5-8.83,4.57-9.39,10.6-.04.46-.01.92-.02,1.38,3.88-.94,4.95,2.04,3.38,5.14.17.13,1.53-.5,1.87-.55,2.94-.46,3.94,1.43,3.42,4.08,1.47-.07,2.96-.32,4.31-.9,3.31-1.43,5.23-6.12,7.73-8.73,3.23-3.35,9.57-6.79,10.73.22.34.08.24-.07.34-.19,1.34-1.71,1.29-4.19-.11-5.84s-3.63-2.17-5.74-2.36l-6.24.59,6.32-2.86c1.45-.71,2.5-1.94,2.95-3.51-1.36-.68-1.72-1.71-1.42-3.19.13-.64.63-1.14.82-1.75-1.74,1.3-3.74,1.54-4.91-.55-3.61,1.11-4.52,5.5-5.93,8.59-.1.22-.24.7-.46.78ZM38.87,45.4c-.53-.49-1.34-.67-1.96-1.05-1.57-.96-2.78-2.59-3.03-4.44.09-.27,1.49-.55,1.7-1.56.29-1.41-1.83-3.82-2.88-4.71.07,2.9.65,5.77-.13,8.62-.54,2-1.88,3.63-2.98,5.33-3.54-1.89-5,1.06-1.9,3.17-4.01,3.28-10.33,3.34-13.74,7.42-4.01,4.81-.32,14.24,6.39,12.27,5.1-1.49,1.83-8.58-2.13-4.93-.73.67-.83,1.72-1.47.3-1.14-2.55,1.47-5.64-2.13-6.39,2.29-1.71,4.24-3.34,7.04-1.46.32.21,1.31,1.23,1.55,1.24,1.7-.61,3.4-1.43,5.26-1.14,1.04.16,2.18.99,3.19,1.29.04.2.03.19-.09.3-.9.85-2.12,1.89-.26,2.76,2.17,1.02,3.25-.87,2.26-2.77,1.5.08,3.51.04,4.24-1.56.28-.6.22-1.01.31-1.6.02-.16-.07-.3.21-.22.77.23,2.36,1.48,2.87,2.13,2.31,2.96.19,5.95-2.79,7.12-.22.28,2.16.85,2.43.88,2.72.27,3.71-1.3,4.41-3.67.98,1.16,2.41,2.77,1.92,4.41-.19.64-.9.9-1.11,1.46,1.35.1,2.27.84,3.01,1.91l.95-1.25c1.11-1.38,2.37-.33,2.87.96l.26.12c3.19-.97,6.41-2.06,6.72-5.92.14-1.7-.47-3.99-2.58-3.76-1.95.22-1.37,2.9-.81,4.12-1.91.04-3.9-.13-5.68-.85-3.83-1.55-5.04-5.27-7.54-8.18-3.28-3.79-9.96-8-10.13.44,0,.14.08.5-.15.29-3.83-2.91-3.68-8.22.83-10.34.41-.19,2.11-.75,2.48-.75h2.57ZM105.13,45.4h2.57c.22,0,1.43.37,1.73.48,5.18,1.8,5.81,7.61,1.43,10.69,0-8.48-6.23-5.1-9.85-1.11-2.97,3.28-3.99,7.39-8.7,8.78-1.56.46-3.19.57-4.81.55.62-1.22,1.14-3.9-.81-4.12-2.21-.24-2.76,2.27-2.54,4.01.47,3.71,3.66,4.8,6.8,5.65.62-.96,1.46-2.41,2.71-1.36l1.24,1.54c.73-1.04,1.69-1.86,3.01-1.91.06-.42-.44-.5-.65-.75-1.44-1.75.31-3.5,1.24-4.98l.3.08c.76,3.53,3.76,4.31,6.75,2.63-3.02-1.39-5.18-4.31-2.64-7.34.52-.62,1.96-1.76,2.72-1.99.29-.09.19.06.21.22.09.59.04,1,.31,1.6.72,1.54,2.75,1.7,4.24,1.56-.81,1.96-.11,3.6,2.18,2.84,1.94-.65.72-2.22-.27-3.13,1.13-.36,2.28-1.17,3.47-1.31,1.86-.21,3.37.67,5.11,1.13,1.33-1.2,2.66-2.27,4.58-2.03,1.18.15,2.91,1.6,3.89,2.28-3.08.72-1.61,2.88-1.76,5-.03.42-.13.81-.27,1.2-.64,1.71-.81.59-1.57-.1-1.32-1.21-3.22-1.57-4.26.16-1.42,2.38.45,4.68,2.94,4.97,6.56.76,9.3-8,5.57-12.48-3.39-4.06-9.73-4.17-13.74-7.42,3.04-1.98,1.78-5.04-1.76-3.22-1.33-1.6-2.72-3.57-3.19-5.64-.63-2.79-.08-5.45-.05-8.26-1.67,1.49-4.82,5.16-1.03,6.17-.56,1.92-1.38,3.39-3.1,4.47l-2.05,1.11ZM83.24,60.83c-2.01.23-3.74.52-5.73-.07-3.09-.92-4.43-3.93-5.51-6.69-1.07,2.88-2.58,6.02-5.83,6.81-1.87.45-3.53.13-5.41-.04.36,1.84.56,4.23-.08,6.02-.94,2.62-3.98,4.33-6.54,5,.49.55,1.44.71,2.11,1.05,4.56,2.29,5.5,5.28,4.5,10.26,1.32-.07,2.56-.38,3.89-.29,4.19.28,5.96,3.32,7.28,6.9.18.14.69-1.38.75-1.52,1.73-3.71,3.78-5.64,8.13-5.38.39.02,2.28.41,2.43.29-.72-3.75-.53-7,2.81-9.32l3.81-1.92c-2.75-.95-5.84-2.49-6.65-5.54-.47-1.75-.3-3.79.04-5.55ZM36.22,65.68c4.03-1.4,7.63-4.83,2.72-8.08-.35,2-2.28,2.99-4.19,2.94.82,4.88-7.48,3.29-4.55-.88-.6-.18-1.14-.51-1.76-.66-1.83-.44-3.75.73-5.49,1.23-1.39-1.19-2.48-2.53-4.51-2.12-.27.06-1.73.8-1.83.96-.16.24.6.89.74,1.32.46,1.39-.35,3.12,0,4.56.19.25.21.05.37-.08,5.1-4.06,8.53,3.27,4.07,5.98-.94.57-2.24.99-3.33,1-.12.46.53.27.89.36.57.14,1.13.31,1.66.54,6.05,2.65,1.36,10.94-3.58,6.15-.52,1.56.56,3.77-.32,5.19-.16.26-.69.55-.49.84.11.16,1.56.9,1.83.96,2.02.42,3.1-.91,4.49-2.09,2.53.81,4.7,2.04,7.28.54-2.92-4.18,5.37-5.78,4.56-.88,1.81-.08,3.93.96,4.12,2.94,3.02-1.83,3.4-4.5.34-6.58-.97-.66-2.09-.97-2.98-1.64,3.26-1.36,7.38-2.94,9.33,1.17,2.02-2.46.04-2.84-1.65-3.93-.14-.09-.26.02-.19-.33,2.3-.34,4.25-.85,5.27-3.14-.57-.64-1.09-1.69-1.84-2.13-.83-.48-2.47-.69-3.43-.9-.07-.34.05-.24.19-.33,1.7-1.09,3.66-1.48,1.65-3.93-1.9,3.85-5.42,2.73-8.63,1.43-.2-.08-.66-.18-.7-.4ZM105.13,57.75c-.34-.23-1.72,1.32-1.93,1.65-1.49,2.42.53,4.21,2.52,5.32.2.11,2.22.89,2.06,1.1-3.29,1.34-7.34,2.95-9.33-1.17-2.01,2.55-.01,2.78,1.64,3.93.13.09.27-.02.19.33-.99.21-2.58.4-3.43.9-.73.43-1.24,1.49-1.82,2.11-.02.3,1.47,2.05,1.82,2.26.83.48,2.47.69,3.43.9.08.35-.06.24-.19.33-.97.68-2.65.97-2.42,2.5.04.25.57,1.57.85,1.36,1.87-4.06,6.09-2.42,9.26-1.1-.89.72-2.09,1-3.08,1.7-2.99,2.12-2.45,4.58.36,6.53.49-2.05,2.16-2.96,4.19-2.94-.75-4.82,7.28-3.37,4.7.8,2.28,1.72,4.78.29,7.1-.48,1.38,1.13,2.53,2.53,4.51,2.12.28-.06,1.73-.8,1.83-.96.19-.29-.33-.58-.49-.84-.89-1.43.23-3.58-.32-5.12l-1.47,1.03c-3.27,1.49-5.94-1.92-4.58-5.02.68-1.56,2.57-2.38,4.13-2.77.36-.09,1.01.1.89-.36-3.41,0-6.99-3.3-4.74-6.72,1.49-2.26,3.67-1.68,5.47-.26.16.12.18.33.37.08.36-1.53-.58-3.65.24-5.05.14-.23.62-.54.57-.75-2.46-2.11-4.43-.88-6.39,1.05-2.37-.69-4.85-2.25-7.13-.46,2.54,4.14-5.4,5.63-4.7.8-1.88.01-3.7-.82-4.12-2.78ZM38.87,98.6h-2.57c-.41,0-1.77-.51-2.23-.71-4.8-2.06-5.03-7.57-.93-10.46.03,8.86,6.81,4.73,10.28.66,2.1-2.46,3.33-5.76,6.22-7.44,2.08-1.21,4.47-1.48,6.86-1.44-.74,1.33-1.01,4.32,1.2,4.18,1.77-.11,2.29-2.21,2.19-3.67-.27-4.03-3.48-5.12-6.82-6.07-.78,1.26-1.63,2.57-3.03,1.09l-.95-1.25c-.73,1.04-1.69,1.86-3.01,1.91-.05.4.44.46.67.73,1,1.15.43,2.46-.25,3.58-.11.18-1,1.38-1.08,1.42-.25.12-.23-.17-.29-.29-.31-.72-.39-1.22-.9-1.9-1.63-2.16-3.58-1.25-5.79-.75-.07.34.05.24.19.33.53.34,1.12.57,1.64,1,3.68,2.98,1.65,6.81-2.13,8.22.1-1.25-.26-2.31-1.39-2.94-.14-.08-.98-.44-1.03-.44h-2.13c1.16-2.08-.45-3.99-2.55-2.62-1.45.94-.21,1.89.54,2.61.12.12.13.1.09.3-1.09.34-2.2,1.13-3.34,1.29-1.83.25-3.43-.56-5.11-1.13-1.45,1.1-2.56,2.27-4.55,2.05-.99-.11-3.13-1.47-3.89-2.14-.14-.13-.22-.17,0-.29.63-.36,1.48-.22,1.81-1.27.4-1.25-.56-2.92.03-4.67.63-1.9.88-.68,1.61,0,3.65,3.43,7.05-2.71,2.78-4.69-6.86-3.18-12.15,7.83-5.93,13.13,2.56,2.19,5.93,2.83,8.92,4.16,1.28.57,2.44,1.37,3.72,1.94.04.2.03.19-.09.3-.24.23-.58.39-.86.72-2.11,2.52.45,3.73,2.72,2.42,2.43,2.62,3.8,5.94,3.53,9.56l-.3,4.33c1.03-.86,3.17-3.34,2.88-4.71-.22-1.07-1.59-1.24-1.69-1.56.14-1.28.86-2.45,1.68-3.43l3.3-2.06ZM107.71,98.6c-.81.09-1.75-.07-2.57,0l3.16,1.91c.93.98,1.65,2.22,1.83,3.58-3.5,1.48-.48,4.63,1.18,6.27-.03-2.81-.59-5.47.05-8.26.47-2.08,1.83-4.03,3.19-5.63.2-.09,1.96,1.19,3.09.16,1.47-1.35-1.26-3.21-1.18-3.53,4.01-3.11,10.36-3.3,13.66-7.36,3.62-4.45.94-13-5.51-12.42-.63.06-1.54.37-2.08.71-3.19,2-.73,7.3,2.85,4.76.61-.43.84-.99,1.43-1.36,1.68,1.5.08,4.53.7,5.91.34.77,1.03.83,1.68,1.11.11.05.3,0,.11.18-.7.69-3,2.1-3.97,2.2-1.99.21-3.1-.97-4.55-2.05-1.64.59-3.31,1.38-5.11,1.13-1.14-.15-2.25-.95-3.34-1.29-.04-.2-.03-.19.09-.3.83-.79,2.11-1.81.4-2.76-2.1-1.16-3.4.84-2.4,2.77h-2.13c-.06,0-1.03.39-1.15.46-.96.57-1.36,1.85-1.27,2.92-1.47-.54-3.16-1.75-3.74-3.23-1.13-2.85,1.05-4.97,3.45-6.1-2.51-1.23-4.9-1.43-6.3,1.34-.17.34-.24.73-.39,1.08-.05.12-.04.42-.29.29-.15-.07-1.14-1.55-1.28-1.81-.49-.92-.79-1.59-.38-2.63.25-.63.79-.73.99-1.29-1.22-.17-2.53-.82-2.94-2.06-.21-.15-1.01,2.3-2.39,2.03-1.07-.21-1.38-1.65-1.67-1.72-3.35.98-6.52,2.06-6.82,6.07-.1,1.37.38,3.43,1.99,3.61,2.47.28,2.19-2.61,1.4-4.12.61.03,1.23-.04,1.83,0,9.15.61,8.77,8.9,15.61,12.61,4.23,2.29,6.07-.18,5.92-4.38,4.4,3.06,3.73,8.89-1.43,10.69-.42.15-1.33.43-1.73.48ZM14.12,87.2c-3.26-3.05-3.31-7.16-1.56-11.08-2.26,2.49-2.34,6.07-1.64,9.2.32,1.44.99,2.75,1.34,4.17-.5-.12-1.18-.29-1.68-.3-.22,0-.42-.1-.35.21.54,2.63,3.79,3.42,5.86,4.43-1.76.67-3.99.78-5.22,2.42s-.39,3.93,1.69,4.12c-2.51-2.41.07-4.97,2.99-3.5,2.04,1.03,3.64,3.89,4.29,6,.8,2.63.37,6.41,4.04,6.46-1.99-5.5,4.34-5.87,6.4-1.92,1.24,2.39.39,4.8-.67,7.06,2.02-1.11,4.32-1.8,6.56-.91,4.31,1.71,4.35,8.6-1.42,6.64-.04,3.45,3.46,3.18,5.91,3.86s6.06,2.52,6.8,5.24-1.84,4.34-3.75,2.21c-.09,1.52,1.33,2.34,2.72,2.2,2.48-.24,3.29-3.71,3.6-5.73.38-.07.23.06.31.21,1.12,2.17,1.47,4.96,4.33,5.66.23.06.23.03.19-.18-.14-.67-.18-1.34-.27-2.01,4.25,2.02,9.57,2.96,13.52-.22l-3.22,1.04c-3.63.65-6.7-.54-8.89-3.47-2.48-3.32-2.96-7.65-5.23-11.09-1.11.7-2.57,1.51-3.81.58-1.18-.87-.89-2.54-.51-3.74-1.44-1.12-3.05-2.09-4.84-2.52-3.28-.79-6.47-.1-9.79-.13.29-.7.11-1.52.14-2.28.12-2.66.48-5.44-.33-8.03-.47-1.5-1.37-2.92-2.31-4.16-1.1.16-2.11.5-3.16-.06-1.26-.67-1.17-2.38-.54-3.49.12-.22.75-.75.62-.92-1.1-.47-2.13-1.08-3.23-1.54-3.22-1.35-6.21-1.93-8.88-4.42ZM131.73,89.49c1.64-4.24,3.04-9.59-.29-13.37,1.84,3.82,1.63,8.4-1.7,11.31s-8.22,3.6-11.97,5.74c2.39,2.87.68,5.7-2.99,4.42-3.82,4.09-2.78,9.44-2.74,14.53-3.21-.01-6.35-.61-9.53.1-1.8.4-3.49,1.46-4.95,2.54,1.05,2.48-.31,5.11-3.21,3.81-.23-.1-1.02-.72-1.12-.65-1.91,2.91-2.52,6.45-4.18,9.49-2.31,4.22-5.82,6-10.63,4.89l-2.52-.86c4.03,3.26,9.09,2.07,13.52.37-.08.6-.15,1.19-.18,1.8,0,.12-.29.34.11.25.3-.07,1.01-.44,1.3-.61,1.92-1.18,2.1-3.59,3.33-5.26.35,2.01,1.12,5.49,3.6,5.73,1.43.14,2.78-.65,2.72-2.2-.3.25-.55.59-.93.76-1.16.54-2.6-.04-2.86-1.31-.72-3.53,3.93-6.07,6.73-6.87,2.49-.71,6.08-.36,6.02-3.89-3.58,1.29-5.75-1.34-3.79-4.6s6.08-2.84,8.94-1.13c-.8-1.83-1.6-3.73-1.13-5.76,1.15-5.03,9.03-5.68,6.87.62,3.51-.06,3.18-3.23,3.86-5.76s2.49-6.14,5.22-6.98c1.94-.6,4.07.79,3,2.85-.19.36-.6.51-.62.93,1.97-.25,2.76-2.44,1.61-4.04s-3.48-1.94-5.29-2.43l3.07-1.41c1.42-.67,2.49-1.7,2.81-3.29l-2.06.29ZM55.32,80.08c-1.5.06-3.08.31-4.46.9-3.26,1.41-5.15,5.99-7.58,8.58s-7.72,6.39-10.26,2.03l-.76-2.25c-2.78,3.98-.16,7.68,4.2,8.36.51.08,1.07-.04,1.6.16l6.1-.59-6.42,2.91c-1.37.72-2.44,1.93-2.85,3.46,1.52.78,1.88,1.94,1.3,3.51-.19.52-.55.92-.7,1.43,1.55-1.2,4.06-1.62,4.85.59,1.58-.46,2.79-1.55,3.55-2.99l2.91-6.42c-.2,3.55-1.44,7.54.62,10.77,1.66,2.6,4.75,3.21,7.17,1.2-6.89-1.38-3.81-7.47-.37-10.8,2.65-2.56,7.36-4.39,8.82-7.79.58-1.35.87-2.94.81-4.4-3.89.96-4.86-2.07-3.38-5.14-1.11.22-1.98.7-3.17.59-2-.17-2.66-2.45-1.98-4.12ZM111.6,89.34c-.88,6.7-6.77,4.17-10.14.96-3.84-3.65-4.81-8.97-10.69-10.02-.27-.05-1.85-.28-1.94-.19.44,2.39-.27,4.35-3.02,4.12-.81-.07-1.47-.51-2.27-.59,1.58,3.1.51,6.09-3.38,5.14-.1,2.32.71,5,2.34,6.69,3.28,3.39,10.21,5.8,10.99,11.49.44,3.2-1.23,3.86-3.78,4.67-.13.04-.42.03-.23.21,4.88,3.42,8.84-1.7,8.3-6.54l-.59-5.51c.22.08.36.56.46.78,1.41,3.09,2.34,7.48,5.93,8.59,1.08-2.15,3.25-1.81,4.92-.55-.17-.54-.56-.98-.74-1.53-.5-1.51-.09-2.68,1.34-3.41-.42-1.52-1.48-2.73-2.85-3.46l-6.42-2.91c3.53.09,7.38,1.4,10.63-.62,2.72-1.68,3.3-4.93,1.13-7.32ZM70.29,91.08c-.57-3.5-2.43-7.07-6.51-7.03-1.59.02-4.07,1.56-2.85,3.29.87,1.24,2.75.54,3.94.24-.03,4.19-.9,7.16-4.27,9.76-3.08,2.38-9.78,6.18-9.24,10.89.27,2.38,3.27,2.62,5.14,2.72.17.14-.8,1.04-.95,1.18-2.05,1.81-5.08,2.34-7.35.58s-2.94-4.68-2.87-7.49l-1.62,2.86c-1.02,1.15-2.45,1.88-3.96,2.13-.92-3.88-4.65-.34-6.17,1.17,4.94-.47,8.69-.89,12.83,2.23,2.13,1.61.44,1.14.54,2.98.13,2.46,3.09,1.23,3.9-.21,3.23,4.05,3.35,10.43,7.5,13.81,4.63,3.76,13.82.38,12.22-6.2-1.34-5.54-8.72-2.2-4.96,1.87.32.35.7.55,1.03.88-2.13,2.41-6.54-1.34-7.12,2.72-1.21-1.56-2.88-3.5-2.24-5.62.34-1.12,1.25-2.08,1.97-2.98-.37-1.26-1.25-2.97-1.28-4.27s.88-3.12,1.55-4.18c.85,1.22,2.65,1.87,3.09,0,.52-2.19-1.11-2.88-2.87-1.91.09-1.6-.12-3.9-1.95-4.44-.5-.15-.78-.06-1.21-.11-.2-.03-.26.08-.22-.22.1-.66,1.25-2.18,1.76-2.65,2.26-2.06,4.76-1.45,6.53.82l1.11,1.75c.49-1.7,1.3-3.46.15-5.07-.77-1.07-1.97-1.35-3.08-1.91,1.8-1.43,3.91-3.12,5.73-.66.24-1.22.78-2.53,2.06-2.94l-.09-.3c-2.19-.95-2.62-2.64-.23-3.69ZM82.6,84.84c-1.16-1.07-3.43-.79-4.8-.27-2.59,1-3.42,3.89-4.13,6.32l.04.19c2.43,1,1.91,2.92-.32,3.7,1.04.95,1.94,1.69,2.06,3.23,1.84-2.47,3.92-.79,5.73.66-1.29.64-2.81.99-3.41,2.47-.63,1.56.1,3,.47,4.51l1.26-1.9c2.31-2.92,5.5-2.36,7.44.62.22.33.65.99.7,1.36.06.4-.77.17-1.09.23-2.11.39-2.36,2.77-2.29,4.54-.59-.31-1.25-.53-1.92-.38-1.8.42-1.08,4.2,1,3.35.3-.12,1.04-1.12,1.21-.99.57,1.06,1.31,2.36,1.43,3.57.16,1.69-.79,3.19-1.14,4.8.84,1.2,2.15,2.53,2.06,4.11s-1.48,3.45-2.5,4.49c-.35-4.08-4.99-.29-7.05-2.72,1.97-1.18,3.23-4.08.64-5.34-3.27-1.6-5.19,2.33-4.57,5.15.89,4.02,5.47,5.79,9.22,5.05,6.75-1.34,6.91-10.69,10.5-15.21.8.92,2.54,2.58,3.6,1.1.88-1.23-.42-2.61-.23-3.01,1.52-1.26,3.3-2.48,5.23-3.01,2.78-.77,5.83-.22,8.67-.08-1.52-1.51-5.23-5.04-6.17-1.17-2.76-.41-4.67-2.43-5.51-5-.1,1.99-.27,3.99-1.33,5.72-2.4,3.91-7.44,3.68-9.91.01,2.68-.13,5.65-.56,5.11-4.01-.96-6.11-10.36-8.44-12.48-13.53-.79-1.91-.83-3.81-1-5.83.15-.16,3.08,1.36,4.03-.31.46-.8.09-1.84-.55-2.43ZM75.16,100.36c-.38-1.09-.44-2.61-1.05-3.58-.25-.4-1.82-1.8-2.22-1.7-.07.02-1.07.75-1.2.87-1.39,1.21-1.34,2.75-1.84,4.4l-1.26-2.04c-.81-1.28-2.09-.56-3,.21,4.23,1.68,2.61,6,1.32,9.18-.34.07-.24-.05-.33-.19-.42-.65-.7-1.57-1.12-2.26-1.98-3.27-4.57-3.47-6.78-.27l1.61.89c.97.92,1.22,2.16,1.33,3.44,4.05-1.06,3.78,6.08,0,5.07-.25-.07-.9-.63-1.02-.52-.11.76-.56,1.44-.67,2.2-.23,1.55.92,3.41,1.25,4.93-.61,1.18-2.23,2.35-2.2,3.81.02.88.74,2.03,1.26,2.72l1-.76c1.58-.74,3.2.41,4.8-.12.14-.19-.57-.76-.71-.98-1.58-2.49-.09-5.39,2.84-5.49s4.51,2.81,4.78,5.44l.7-2.31c2.34-5.98,10.03-2.39,7.06,2.36-.14.22-.85.78-.71.98,1.7.51,3.45-.72,5.1.26.4.24.36.55.7.62.39-.15,1.19-1.98,1.24-2.44.18-1.66-1.43-2.82-2.19-4.09.31-1.48,1.44-3.34,1.3-4.84-.08-.82-.59-1.5-.72-2.29-.53.14-.78.53-1.39.59-3.49.36-3.47-6.18.36-5.15.15-1.26.39-2.44,1.29-3.38l1.65-.95c-3.23-4.86-6.71-1.07-8.01,2.86-1.56-3.08-3.09-7.65,1.1-9.33-2.51-2.17-2.99.02-4.26,1.84ZM15.8,107.41c-2.36-1.91-5.3-.1-5.58,2.72-.43,4.26,2.97,5.98,6.46,7.13.05.36,0,.23-.21.31-1.24.46-2.78.58-4.01,1.13-.25.11-1.4.72-1.21,1.05.65.35,1.04,1.12,1.75,1.41,1.65.66,4.18.56,5.93,1.06l5.97-3.93c-2.67.23-4.62-3.14-2.06-4.71.15-.21-.97-.49-1.15-.5-2.65-.21-9.25,3.16-9.98-1.51-.44-2.79,1.16-4.88,4.08-4.15ZM127.32,117.26c3.5-1.05,7.32-3.27,6.43-7.53-.55-2.64-3.24-4.02-5.55-2.39.92-.01,1.54-.19,2.45.19,2.05.85,2.27,4.51.64,5.84-2.32,1.88-6.49-.52-9.19-.22-.18.02-1.1.22-.95.44.56.07,1.09,1.06,1.17,1.55.3,1.95-1.41,3.19-3.22,3.15l6.21,3.92c2.51-.75,5.75-.16,7.44-2.55.17-.95-4.49-1.83-5.22-2.1-.2-.07-.25.05-.21-.31ZM36.52,128.13c1.73,4.87-6.3,6.11-6.62,1.11-.17-2.74,1.8-5.48.67-8.01-1.88,2.36-4.94.74-4.78-2.06l-3.94,5.98c.62,2.6.18,5.91,2.55,7.68l.63-.68,1.64-4.89c1.25,3.36,2.88,7.03,7.13,6.61,2.99-.29,4.85-3.35,2.72-5.73ZM118.5,119.17c-.48-.12-.25.64-.36,1.04-.64,2.36-3.21,2.89-4.78,1.02-1.19,2.92,2,7.05.21,9.84-1.39,2.16-5.93,1.7-6.24-1.09-.07-.62.06-1.23.07-1.84-1.91,2.52-.2,5.43,2.79,5.73,4.21.42,5.95-3.24,7.13-6.61l1.21,4,.85,1.58c.19.13,1.02-.77,1.17-.96,1.31-1.66,1.09-4.69,1.6-6.72l-3.65-5.99ZM17.71,123.14c-1.73.41-4.76.52-6.1,1.76-.62.57-.86,1.49-1.38,2.13,0,.32,2.03.91,2.43,1.09.1.04.31-.04.2.23-.12.32-.85,1.14-1.09,1.56-.54.91-1.26,2.05-1.27,3.15,0,.75.81.44,1.36.32,1.45-.32,2.62-1.42,3.87-2.16.31-.06.17.05.22.2.16.42.61,2.18.96,2.28,3.51-.9,3.39-4.57,4.02-7.48-.4.25-.66.65-1.06.92-2.39,1.58-4.49-.4-3.02-2.87.1-.17.95-1.05.85-1.13ZM133.79,127.25c-.76-2.05-1.66-2.82-3.73-3.4-1.19-.33-2.58-.56-3.77-.64,3.3,3.26-.19,6.36-3.23,3.01.68,2.9.48,6.43,3.92,7.47.55.03.83-2.16,1.29-2.47,1.59,1,3.07,2.36,5.08,2.29.54-2.09-1.43-3.63-2.21-5.37l2.65-.88Z"/>
  <path class="st1" d="M45.18,98.74c1.89-2.94,3.59-8.45,6.66-10.31,1.58-.96,3.68-.62,4.18,1.32.7,2.71-2.74,4.77-4.71,5.93s-4.08,2.13-6.12,3.06Z"/>
  <path class="st1" d="M92.89,55.05c-1.2,1.06-3.17,1.61-4.36.23-1.33-1.54-.36-3.45.88-4.66,2.5-2.44,6.46-3.69,9.4-5.51l-3.26,6.36c-.67,1.13-1.69,2.71-2.67,3.58Z"/>
  <path class="st1" d="M98.82,98.74c-.21.04-.36-.04-.54-.12-2.48-1.08-8.73-4.35-9.95-6.65-1.44-2.72,1.15-5.18,3.84-3.55,3.11,1.89,4.77,7.32,6.66,10.31Z"/>
  <path class="st1" d="M45.19,45.11c2.7,1.6,5.87,2.72,8.36,4.64,1.57,1.21,3.76,3.6,1.92,5.57-2.26,2.43-5.41-1.08-6.53-3.02l-3.76-7.19Z"/>
  <path class="st0" d="M78.98,80.23c.15.15-.72.98-.88,1.1-1.22.94-2.11.41-3.38-.08-.03,2.23-1.41,3.55-2.72,5.14-1.32-1.6-2.64-2.9-2.72-5.14-1.71.91-3.32.84-4.26-1.03,1.43-.14,2.7-.84,3.5-2.01,1.05-1.55,1.05-3.51,3.5-3.56s2.47,2.17,3.52,3.65c.76,1.08,2.12,1.82,3.44,1.92ZM77.36,80.67c-1.32-.23-2.25-1.37-2.91-2.45-.71-1.18-.78-2.58-2.45-2.67s-2.12,2.44-3.02,3.58c-.58.73-1.15,1.02-1.91,1.48-.19.11-.37-.03-.29.36,1.26.18,2.22-.76,3.38-1.03-.2,1.92.42,3.68,1.84,4.99,1.57-1.34,1.86-3.03,1.99-4.99.13-.13,2.92,1.79,3.38.74Z"/>
  <path class="st0" d="M63.84,65.09c0,1.4.84,2.62,1.95,3.41,1.57,1.12,3.55,1.06,3.5,3.57-.05,2.37-1.98,2.34-3.5,3.42-1.16.82-1.87,2-2.02,3.41-2.06-.91-1.72-2.48-1.1-4.26-.91.03-1.81-.27-2.6-.71-.51-.29-1.74-1.26-2.15-1.67-.1-.1-.3-.12-.24-.34,1.51-1.18,2.9-2.66,5-2.57-.3-1.54-1.08-2.22.14-3.6.27-.31.6-.72,1.03-.66ZM63.11,77.29c.56-.62.83-1.39,1.46-1.99.86-.81,3.48-1.67,3.76-2.56.71-2.31-1.53-2.53-2.92-3.41-1.15-.73-1.56-1.54-2.3-2.62-.51.61,1.08,3.19.88,3.38-1.81.04-3.78.36-4.84,1.97,1.34,1.48,2.89,1.84,4.84,1.85-.2,1.14-1.2,2.13-.88,3.38Z"/>
  <path class="st0" d="M74.72,62.74c1.71-.91,3.32-.84,4.26,1.03-.8.06-1.78.41-2.42.88-2.15,1.57-1.7,5.29-5.27,4.54-1.68-.35-1.75-1.75-2.47-2.97-.85-1.44-2.07-2.33-3.79-2.45.91-1.83,2.59-2,4.26-1.03.05-2.23,1.42-3.54,2.72-5.14,1.32,1.58,2.66,2.93,2.72,5.14ZM77.36,63.33c-.87-.85-2.36.4-3.31.73-.22,0-.2-1.27-.24-1.52-.25-1.55-.62-2.4-1.81-3.47-1.47,1.27-1.99,3.09-1.84,4.99-.18.15-3.05-1.78-3.53-.74,1.12.16,2.11,1.15,2.71,2.07.74,1.15.99,3.07,2.66,3.07s1.88-1.85,2.6-2.98c.58-.93,1.65-1.99,2.77-2.16Z"/>
  <path class="st0" d="M81.33,69.35c.76-.02,1.65.2,2.34.53.52.25,2.08,1.48,2.5,1.91.12.12.21.13.16.36-1.6,1.08-2.81,2.6-5,2.5.64,1.83,1,3.14-.96,4.26-.47-1.06-.58-2.02-1.45-2.88-1.23-1.23-3.74-1.4-4.14-3.28-.73-3.39,2.81-3.18,4.42-5.15.68-.83.74-1.56,1.18-2.5,1.95,1.12,1.61,2.44.95,4.26ZM80.01,70.09c-.26-.24,1.59-2.77.81-3.38-.52.81-.85,1.58-1.62,2.2-.86.7-3.33,1.45-3.56,2.46-.57,2.48,2.21,2.53,3.64,3.79.76.66,1,1.39,1.61,2.13.58-.63-1.09-3.18-.88-3.38,1.83-.05,3.75-.33,4.84-1.96-1.22-1.52-2.98-1.84-4.84-1.86Z"/>
  <path class="st1" d="M70.36,70.44c2.03-2.17,5.48,1.1,3.17,3.24-2.03,1.88-5.15-1.12-3.17-3.24Z"/>
</svg>